<svg xmlns="http://www.w3.org/2000/svg" viewBox="0 0 1800 1120" width="1800" height="1120" role="img" aria-labelledby="title desc">
  <title id="title">Cybertron 容器云运行时架构</title>
  <desc id="desc">中文架构图，展示 Cybertron 四个组成部分、四台虚拟机 Runtime Agent，以及每台虚拟机中的多个 Docker Runtime 容器。</desc>
  <style>
    text { font-family: "Helvetica Neue", Helvetica, Arial, "PingFang SC", "Microsoft YaHei", "Microsoft JhengHei", "SimHei", sans-serif; fill: #111827; }
    .code { font-family: Consolas, "SFMono-Regular", Menlo, "Microsoft YaHei", monospace; font-size: 10px; fill: #374151; }
    .title { font-size: 34px; font-weight: 760; }
    .subtitle { font-size: 16px; fill: #4b5563; }
    .section-title { font-size: 21px; font-weight: 760; }
    .card-title { font-size: 19px; font-weight: 760; }
    .box-title { font-size: 15px; font-weight: 740; }
    .label { font-size: 13px; font-weight: 720; }
    .small { font-size: 13px; fill: #374151; }
    .tiny { font-size: 11px; fill: #6b7280; }
    .pill { font-size: 11px; fill: #374151; font-weight: 760; }
    .chip { font-size: 12px; fill: #111827; font-weight: 700; }
    .node { stroke-width: 1.5; }
    .soft { filter: url(#softShadow); }
  </style>
  <defs>
    <filter id="softShadow" x="-8%" y="-8%" width="116%" height="122%"><feDropShadow dx="0" dy="6" stdDeviation="7" flood-color="#111827" flood-opacity="0.07"/></filter>
    <marker id="arrowBlue" markerWidth="10" markerHeight="7" refX="9" refY="3.5" orient="auto"><polygon points="0 0,10 3.5,0 7" fill="#2563eb"/></marker>
    <marker id="arrowGreen" markerWidth="10" markerHeight="7" refX="9" refY="3.5" orient="auto"><polygon points="0 0,10 3.5,0 7" fill="#16a34a"/></marker>
    <marker id="arrowPurple" markerWidth="10" markerHeight="7" refX="9" refY="3.5" orient="auto"><polygon points="0 0,10 3.5,0 7" fill="#9333ea"/></marker>
  </defs>
  <rect width="1800" height="1120" fill="#ffffff"/>
<text x="64" y="58" class="title">Cybertron 容器云运行时架构</text>
<text x="64" y="92" class="subtitle">Cybertron 由一个前端和三个可执行程序组成；Daemon 连接 Cybertron Service 与 LLM Runtime，并把任务交给容器云执行。</text>
<rect x="64" y="128" width="1672" height="242" rx="22" fill="#f9fafb" stroke="#e5e7eb" class="node soft"/>
<text x="96" y="166" class="section-title">Cybertron 四部分</text>
<rect x="1418" y="144" width="250" height="30" rx="15" fill="#ffffff" stroke="#d1d5db" class="node"/>
<text x="1543" y="164" class="pill" text-anchor="middle">1 个前端 + 3 个可执行程序</text>
<rect x="96" y="194" width="344" height="132" rx="20" fill="#eff6ff" stroke="#93c5fd" class="node soft"/>
<rect x="118" y="216" width="112" height="28" rx="9" fill="#ffffff" stroke="#93c5fd" class="node"/>
<text x="174" y="235" class="pill" text-anchor="middle">前端服务</text>
<text x="118" y="272" class="card-title">Cybertron Web</text>
<text x="118" y="300" class="small">用户操作入口</text>
<text x="118" y="322" class="tiny">任务、评论、看板、协作</text>
<rect x="500" y="194" width="344" height="132" rx="20" fill="#fff7ed" stroke="#fed7aa" class="node soft"/>
<rect x="522" y="216" width="112" height="28" rx="9" fill="#ffffff" stroke="#fed7aa" class="node"/>
<text x="578" y="235" class="pill" text-anchor="middle">服务端程序</text>
<text x="522" y="272" class="card-title">Cybertron Service</text>
<text x="522" y="300" class="small">管理业务状态</text>
<text x="522" y="322" class="tiny">账号、Workspace、队列、审计</text>
<rect x="904" y="194" width="344" height="132" rx="20" fill="#faf5ff" stroke="#d8b4fe" class="node soft"/>
<rect x="926" y="216" width="112" height="28" rx="9" fill="#ffffff" stroke="#d8b4fe" class="node"/>
<text x="982" y="235" class="pill" text-anchor="middle">守护进程</text>
<text x="926" y="272" class="card-title">Cybertron Daemon</text>
<text x="926" y="300" class="small">连接 Service 和 Runtime</text>
<text x="926" y="322" class="tiny">领取任务、启动容器、回传结果</text>
<rect x="1308" y="194" width="344" height="132" rx="20" fill="#f0fdfa" stroke="#99f6e4" class="node soft"/>
<rect x="1330" y="216" width="112" height="28" rx="9" fill="#ffffff" stroke="#99f6e4" class="node"/>
<text x="1386" y="235" class="pill" text-anchor="middle">AI 执行程序</text>
<text x="1330" y="272" class="card-title">LLM Runtime</text>
<text x="1330" y="300" class="small">在容器中运行模型工具链</text>
<text x="1330" y="322" class="tiny">Codex、Skills、Tools、Workspace</text>
<line x1="440" y1="260" x2="500" y2="260" stroke="#2563eb" stroke-width="2.3" marker-end="url(#arrowBlue)"/>
<text x="470" y="245" class="tiny" text-anchor="middle">访问</text>
<line x1="844" y1="260" x2="904" y2="260" stroke="#2563eb" stroke-width="2.3" marker-end="url(#arrowBlue)"/>
<text x="874" y="245" class="tiny" text-anchor="middle">任务 / 状态</text>
<line x1="1248" y1="260" x2="1308" y2="260" stroke="#9333ea" stroke-width="2.3" marker-end="url(#arrowPurple)"/>
<text x="1278" y="245" class="tiny" text-anchor="middle">桥接</text>
<line x1="1480" y1="326" x2="1480" y2="402" stroke="#9333ea" stroke-width="2.3" marker-end="url(#arrowPurple)"/>
<text x="1510" y="374" class="tiny">容器化运行</text>
<rect x="64" y="402" width="1672" height="466" rx="22" fill="#f0fdf4" stroke="#86efac" class="node soft"/>
<text x="96" y="442" class="section-title">Runtime Agent 容器云</text>
<text x="96" y="468" class="small">当前为 4 台虚拟机。每台 VM 都运行 Runtime Agent，并通过 Docker 启动多个隔离的 LLM Runtime 容器。</text>
<rect x="96" y="510" width="370" height="306" rx="18" fill="#ffffff" stroke="#86efac" class="node soft"/>
<rect x="114" y="528" width="78" height="26" rx="8" fill="#dcfce7" stroke="#86efac" class="node"/>
<text x="153" y="546" class="pill" text-anchor="middle">VM 01</text>
<text x="212" y="546" class="box-title">Runtime Agent 1</text>
<text x="114" y="576" class="small">马来云区域 A</text>
<rect x="116" y="604" width="150" height="32" rx="9" fill="#f0fdf4" stroke="#86efac" class="node"/>
<text x="191" y="625" class="tiny" text-anchor="middle">Runtime Agent</text>
<rect x="296" y="604" width="150" height="32" rx="9" fill="#f0fdf4" stroke="#86efac" class="node"/>
<text x="371" y="625" class="tiny" text-anchor="middle">Docker Engine</text>
<rect x="124" y="656" width="314" height="28" rx="8" fill="#eff6ff" stroke="#d1d5db" class="node"/>
<text x="142" y="675" class="chip">Docker 容器 A</text>
<text x="310" y="675" class="tiny">LLM Runtime</text>
<rect x="124" y="694" width="314" height="28" rx="8" fill="#f9fafb" stroke="#d1d5db" class="node"/>
<text x="142" y="713" class="chip">Docker 容器 B</text>
<text x="310" y="713" class="tiny">Codex / Tools</text>
<rect x="124" y="732" width="314" height="28" rx="8" fill="#f9fafb" stroke="#d1d5db" class="node"/>
<text x="142" y="751" class="chip">Docker 容器 C</text>
<text x="310" y="751" class="tiny">Skills / Plugins</text>
<rect x="124" y="770" width="314" height="28" rx="8" fill="#f9fafb" stroke="#d1d5db" class="node"/>
<text x="142" y="789" class="chip">Docker 容器 N</text>
<text x="310" y="789" class="tiny">Workspace 挂载</text>
<rect x="124" y="796" width="314" height="16" rx="6" fill="#ffffff" stroke="#e5e7eb" class="node"/>
<text x="281" y="808" class="code" text-anchor="middle">每台 VM 可运行多个并发容器</text>
<rect x="496" y="510" width="370" height="306" rx="18" fill="#ffffff" stroke="#86efac" class="node soft"/>
<rect x="514" y="528" width="78" height="26" rx="8" fill="#dcfce7" stroke="#86efac" class="node"/>
<text x="553" y="546" class="pill" text-anchor="middle">VM 02</text>
<text x="612" y="546" class="box-title">Runtime Agent 2</text>
<text x="514" y="576" class="small">马来云区域 A</text>
<rect x="516" y="604" width="150" height="32" rx="9" fill="#f0fdf4" stroke="#86efac" class="node"/>
<text x="591" y="625" class="tiny" text-anchor="middle">Runtime Agent</text>
<rect x="696" y="604" width="150" height="32" rx="9" fill="#f0fdf4" stroke="#86efac" class="node"/>
<text x="771" y="625" class="tiny" text-anchor="middle">Docker Engine</text>
<rect x="524" y="656" width="314" height="28" rx="8" fill="#eff6ff" stroke="#d1d5db" class="node"/>
<text x="542" y="675" class="chip">Docker 容器 A</text>
<text x="710" y="675" class="tiny">LLM Runtime</text>
<rect x="524" y="694" width="314" height="28" rx="8" fill="#f9fafb" stroke="#d1d5db" class="node"/>
<text x="542" y="713" class="chip">Docker 容器 B</text>
<text x="710" y="713" class="tiny">Codex / Tools</text>
<rect x="524" y="732" width="314" height="28" rx="8" fill="#f9fafb" stroke="#d1d5db" class="node"/>
<text x="542" y="751" class="chip">Docker 容器 C</text>
<text x="710" y="751" class="tiny">Skills / Plugins</text>
<rect x="524" y="770" width="314" height="28" rx="8" fill="#f9fafb" stroke="#d1d5db" class="node"/>
<text x="542" y="789" class="chip">Docker 容器 N</text>
<text x="710" y="789" class="tiny">Workspace 挂载</text>
<rect x="524" y="796" width="314" height="16" rx="6" fill="#ffffff" stroke="#e5e7eb" class="node"/>
<text x="681" y="808" class="code" text-anchor="middle">每台 VM 可运行多个并发容器</text>
<rect x="896" y="510" width="370" height="306" rx="18" fill="#ffffff" stroke="#86efac" class="node soft"/>
<rect x="914" y="528" width="78" height="26" rx="8" fill="#dcfce7" stroke="#86efac" class="node"/>
<text x="953" y="546" class="pill" text-anchor="middle">VM 03</text>
<text x="1012" y="546" class="box-title">Runtime Agent 3</text>
<text x="914" y="576" class="small">马来云区域 B</text>
<rect x="916" y="604" width="150" height="32" rx="9" fill="#f0fdf4" stroke="#86efac" class="node"/>
<text x="991" y="625" class="tiny" text-anchor="middle">Runtime Agent</text>
<rect x="1096" y="604" width="150" height="32" rx="9" fill="#f0fdf4" stroke="#86efac" class="node"/>
<text x="1171" y="625" class="tiny" text-anchor="middle">Docker Engine</text>
<rect x="924" y="656" width="314" height="28" rx="8" fill="#eff6ff" stroke="#d1d5db" class="node"/>
<text x="942" y="675" class="chip">Docker 容器 A</text>
<text x="1110" y="675" class="tiny">LLM Runtime</text>
<rect x="924" y="694" width="314" height="28" rx="8" fill="#f9fafb" stroke="#d1d5db" class="node"/>
<text x="942" y="713" class="chip">Docker 容器 B</text>
<text x="1110" y="713" class="tiny">Codex / Tools</text>
<rect x="924" y="732" width="314" height="28" rx="8" fill="#f9fafb" stroke="#d1d5db" class="node"/>
<text x="942" y="751" class="chip">Docker 容器 C</text>
<text x="1110" y="751" class="tiny">Skills / Plugins</text>
<rect x="924" y="770" width="314" height="28" rx="8" fill="#f9fafb" stroke="#d1d5db" class="node"/>
<text x="942" y="789" class="chip">Docker 容器 N</text>
<text x="1110" y="789" class="tiny">Workspace 挂载</text>
<rect x="924" y="796" width="314" height="16" rx="6" fill="#ffffff" stroke="#e5e7eb" class="node"/>
<text x="1081" y="808" class="code" text-anchor="middle">每台 VM 可运行多个并发容器</text>
<rect x="1296" y="510" width="370" height="306" rx="18" fill="#ffffff" stroke="#86efac" class="node soft"/>
<rect x="1314" y="528" width="78" height="26" rx="8" fill="#dcfce7" stroke="#86efac" class="node"/>
<text x="1353" y="546" class="pill" text-anchor="middle">VM 04</text>
<text x="1412" y="546" class="box-title">Runtime Agent 4</text>
<text x="1314" y="576" class="small">马来云区域 B</text>
<rect x="1316" y="604" width="150" height="32" rx="9" fill="#f0fdf4" stroke="#86efac" class="node"/>
<text x="1391" y="625" class="tiny" text-anchor="middle">Runtime Agent</text>
<rect x="1496" y="604" width="150" height="32" rx="9" fill="#f0fdf4" stroke="#86efac" class="node"/>
<text x="1571" y="625" class="tiny" text-anchor="middle">Docker Engine</text>
<rect x="1324" y="656" width="314" height="28" rx="8" fill="#eff6ff" stroke="#d1d5db" class="node"/>
<text x="1342" y="675" class="chip">Docker 容器 A</text>
<text x="1510" y="675" class="tiny">LLM Runtime</text>
<rect x="1324" y="694" width="314" height="28" rx="8" fill="#f9fafb" stroke="#d1d5db" class="node"/>
<text x="1342" y="713" class="chip">Docker 容器 B</text>
<text x="1510" y="713" class="tiny">Codex / Tools</text>
<rect x="1324" y="732" width="314" height="28" rx="8" fill="#f9fafb" stroke="#d1d5db" class="node"/>
<text x="1342" y="751" class="chip">Docker 容器 C</text>
<text x="1510" y="751" class="tiny">Skills / Plugins</text>
<rect x="1324" y="770" width="314" height="28" rx="8" fill="#f9fafb" stroke="#d1d5db" class="node"/>
<text x="1342" y="789" class="chip">Docker 容器 N</text>
<text x="1510" y="789" class="tiny">Workspace 挂载</text>
<rect x="1324" y="796" width="314" height="16" rx="6" fill="#ffffff" stroke="#e5e7eb" class="node"/>
<text x="1481" y="808" class="code" text-anchor="middle">每台 VM 可运行多个并发容器</text>
<rect x="64" y="902" width="1672" height="166" rx="22" fill="#ffffff" stroke="#e5e7eb" class="node soft"/>
<text x="96" y="942" class="section-title">任务执行链路</text>
<text x="96" y="968" class="small">业务动作进入 Cybertron Service，Daemon 从队列领取任务，在 Docker 容器内调用 LLM Runtime，最后把结果回写到 Cybertron。</text>
<rect x="1182" y="917" width="492" height="34" rx="17" fill="#f9fafb" stroke="#e5e7eb" class="node"/>
<line x1="1204" y1="934" x2="1244" y2="934" stroke="#2563eb" stroke-width="2" marker-end="url(#arrowBlue)"/>
<text x="1254" y="938" class="tiny">产品请求</text>
<line x1="1340" y1="934" x2="1380" y2="934" stroke="#16a34a" stroke-width="2" marker-end="url(#arrowGreen)"/>
<text x="1390" y="938" class="tiny">运行时领取</text>
<line x1="1508" y1="934" x2="1548" y2="934" stroke="#9333ea" stroke-width="2" marker-end="url(#arrowPurple)"/>
<text x="1558" y="938" class="tiny">AI 执行</text>
<rect x="96" y="996" width="166" height="46" rx="10" fill="#ffffff" stroke="#d1d5db" class="node"/>
<text x="179" y="1025" class="label" text-anchor="middle">业务动作</text>
<rect x="316" y="996" width="166" height="46" rx="10" fill="#fff7ed" stroke="#fed7aa" class="node"/>
<text x="399" y="1025" class="label" text-anchor="middle">Agent Task</text>
<rect x="536" y="996" width="166" height="46" rx="10" fill="#eff6ff" stroke="#bfdbfe" class="node"/>
<text x="619" y="1025" class="label" text-anchor="middle">任务队列</text>
<rect x="756" y="996" width="166" height="46" rx="10" fill="#faf5ff" stroke="#d8b4fe" class="node"/>
<text x="839" y="1025" class="label" text-anchor="middle">Daemon 领取</text>
<rect x="976" y="996" width="166" height="46" rx="10" fill="#f0fdf4" stroke="#86efac" class="node"/>
<text x="1059" y="1025" class="label" text-anchor="middle">Docker 容器</text>
<rect x="1196" y="996" width="166" height="46" rx="10" fill="#f0fdfa" stroke="#99f6e4" class="node"/>
<text x="1279" y="1025" class="label" text-anchor="middle">LLM Runtime</text>
<rect x="1416" y="996" width="166" height="46" rx="10" fill="#eff6ff" stroke="#bfdbfe" class="node"/>
<text x="1499" y="1025" class="label" text-anchor="middle">结果回写</text>
<line x1="262" y1="1019" x2="316" y2="1019" stroke="#2563eb" stroke-width="2.2" marker-end="url(#arrowBlue)"/>
<line x1="482" y1="1019" x2="536" y2="1019" stroke="#2563eb" stroke-width="2.2" marker-end="url(#arrowBlue)"/>
<line x1="702" y1="1019" x2="756" y2="1019" stroke="#16a34a" stroke-width="2.2" marker-end="url(#arrowGreen)"/>
<line x1="922" y1="1019" x2="976" y2="1019" stroke="#16a34a" stroke-width="2.2" marker-end="url(#arrowGreen)"/>
<line x1="1142" y1="1019" x2="1196" y2="1019" stroke="#9333ea" stroke-width="2.2" marker-end="url(#arrowPurple)"/>
<line x1="1362" y1="1019" x2="1416" y2="1019" stroke="#2563eb" stroke-width="2.2" marker-end="url(#arrowBlue)"/>
</svg>